<svg width="40" height="60" version="1.1" viewBox="0 0 40 60" xmlns="http://www.w3.org/2000/svg">
 <g fill="#fff">
  <g>
   <path d="M5 10h14v16h16v24H5z"/>
   <path d="M22 10l13 13H22z"/>
  </g>
  <g transform="matrix(.24727 0 0 .29867 7.6423 27.313)" stroke-width=".857">
   <path d="m17.997 8.998-5.972 0.072-4.028 43.928 5.914 0.072z"/>
   <path d="m6 16.999-1 6 31 1 1-6z"/>
   <path d="m31.996 8.998-5.971 0.072-4.029 43.928 5.914 0.072z"/>
   <path d="m3.998 37.004-1 6 31 1 1-6z"/>
  </g>
  <g transform="matrix(.24727 0 0 .29867 22.048 27.313)" stroke-width=".857">
   <path d="m17.997 8.998-5.972 0.072-4.028 43.928 5.914 0.072z"/>
   <path d="m6 16.999-1 6 31 1 1-6z"/>
   <path d="m31.996 8.998-5.971 0.072-4.029 43.928 5.914 0.072z"/>
   <path d="m3.998 37.004-1 6 31 1 1-6z"/>
  </g>
 </g>
</svg>
